<svg width="1019" height="1019" viewBox="0 0 1019 1019" fill="none" xmlns="http://www.w3.org/2000/svg">
<rect width="1019" height="1019" fill="white"/>
<path d="M346.46 694.38C338.393 694.38 331.72 692.62 326.44 689.1C321.307 685.727 317.2 681.033 314.12 675.02C311.187 669.007 308.987 662.113 307.52 654.34C306.2 646.567 305.32 638.28 304.88 629.48C304.587 620.533 304.44 611.587 304.44 602.64C304.44 594.867 304.66 586.36 305.1 577.12C305.54 567.733 306.053 558.273 306.64 548.74C307.373 539.06 308.107 529.967 308.84 521.46C309.72 512.953 310.527 505.547 311.26 499.24L351.08 499.68C349.907 507.16 348.807 515.667 347.78 525.2C346.753 534.587 345.873 544.12 345.14 553.8C344.553 563.48 344.04 572.427 343.6 580.64C343.307 588.853 343.16 595.38 343.16 600.22C343.16 613.567 343.38 624.053 343.82 631.68C344.407 639.307 345.213 644.733 346.24 647.96C347.413 651.04 348.953 652.58 350.86 652.58C353.353 652.58 356.067 651.04 359 647.96C361.933 644.733 364.793 641.14 367.58 637.18L386.28 674.36C381.733 679.347 376.307 683.893 370 688C363.693 692.253 355.847 694.38 346.46 694.38ZM404.521 534.88C404.521 533.56 404.448 532.24 404.301 530.92C404.301 529.453 404.301 527.84 404.301 526.08C404.301 521.387 404.448 516.4 404.741 511.12C405.034 505.84 405.328 501.367 405.621 497.7L444.781 498.36C444.341 503.347 443.828 508.993 443.241 515.3C442.801 521.607 442.508 528.133 442.361 534.88H404.521ZM403.641 692.4C403.201 683.307 402.908 673.627 402.761 663.36C402.614 652.947 402.541 642.533 402.541 632.12C402.541 618.48 402.688 605.207 402.981 592.3C403.274 579.393 403.641 567.66 404.081 557.1L441.921 556.88C441.334 563.627 440.968 571.987 440.821 581.96C440.674 591.787 440.601 602.127 440.601 612.98C440.601 623.687 440.674 634.247 440.821 644.66C440.968 655.073 441.114 664.533 441.261 673.04C441.554 681.4 441.774 687.853 441.921 692.4H403.641ZM527.869 695.26C517.896 695.26 508.656 694.087 500.149 691.74C491.642 689.393 483.942 686.387 477.049 682.72C470.156 679.053 463.996 675.167 458.569 671.06L478.369 639.16C484.529 644.88 490.469 649.28 496.189 652.36C501.909 655.44 507.849 657.567 514.009 658.74C520.316 659.913 527.136 660.5 534.469 660.5C540.776 660.5 545.836 659.693 549.649 658.08C553.462 656.32 555.369 654.12 555.369 651.48C555.369 649.28 553.536 647.593 549.869 646.42C546.202 645.1 541.509 644 535.789 643.12C530.069 642.093 524.056 640.847 517.749 639.38C508.802 637.033 500.442 634.32 492.669 631.24C484.896 628.16 478.589 623.98 473.749 618.7C469.056 613.42 466.709 606.38 466.709 597.58C466.709 590.54 468.396 584.38 471.769 579.1C475.142 573.673 479.616 569.2 485.189 565.68C490.909 562.013 497.362 559.3 504.549 557.54C511.736 555.78 519.142 554.9 526.769 554.9C539.969 554.9 551.336 556.513 560.869 559.74C570.549 562.82 579.789 566.927 588.589 572.06L568.569 602.42C564.169 599.34 559.109 596.7 553.389 594.5C547.816 592.153 542.169 590.393 536.449 589.22C530.876 587.9 525.669 587.24 520.829 587.24C515.549 587.24 511.369 588.047 508.289 589.66C505.356 591.273 503.889 593.547 503.889 596.48C503.889 598.24 505.722 599.927 509.389 601.54C513.202 603.007 520.389 604.987 530.949 607.48C537.256 608.947 543.929 610.487 550.969 612.1C558.009 613.567 564.609 615.693 570.769 618.48C577.076 621.12 582.136 625.007 585.949 630.14C589.909 635.127 591.889 641.8 591.889 650.16C591.889 664.24 586.242 675.24 574.949 683.16C563.656 691.227 547.962 695.26 527.869 695.26ZM609.293 692.18C609.293 683.233 609.293 671.793 609.293 657.86C609.44 643.78 609.586 628.16 609.733 611C610.026 593.84 610.393 575.8 610.833 556.88C611.42 537.96 612.08 519.04 612.813 500.12L650.213 499.9C649.626 508.26 649.04 518.453 648.453 530.48C647.866 542.507 647.353 555.413 646.913 569.2C657.033 559.813 668.62 555.12 681.673 555.12C690.62 555.12 698.026 556.733 703.893 559.96C709.906 563.187 714.746 567.44 718.413 572.72C722.08 577.853 724.866 583.5 726.773 589.66C728.68 595.82 730 601.907 730.733 607.92C731.466 613.787 731.833 618.993 731.833 623.54C731.833 633.22 731.76 642.827 731.613 652.36C731.466 661.893 731.32 670.253 731.173 677.44C731.173 684.627 731.173 689.687 731.173 692.62L692.673 692.84C693.26 687.12 693.626 680.52 693.773 673.04C694.066 665.56 694.213 657.86 694.213 649.94C694.36 641.873 694.433 634.247 694.433 627.06C694.433 603.3 688.86 591.42 677.713 591.42C674.34 591.42 670.6 592.3 666.493 594.06C662.386 595.82 658.426 598.607 654.613 602.42C650.946 606.233 648.013 611.293 645.813 617.6C645.666 627.28 645.593 636.667 645.593 645.76C645.593 654.12 645.666 661.967 645.813 669.3C646.106 676.487 646.326 683.747 646.473 691.08L609.293 692.18Z" fill="#636363"/>
<path d="M305.38 474.74C305.233 470.047 305.16 465.28 305.16 460.44C305.16 455.747 305.16 451.053 305.16 446.36C305.16 424.8 305.6 403.9 306.48 383.66C307.36 363.273 308.387 343.84 309.56 325.36C303.693 326.827 298.78 328.22 294.82 329.54L286.24 294.34C293.427 292.14 300.98 290.233 308.9 288.62C316.967 286.86 324.813 285.467 332.44 284.44C340.213 283.267 347.327 282.46 353.78 282.02C360.38 281.433 365.807 281.14 370.06 281.14C374.607 281.14 380.18 281.507 386.78 282.24C393.527 282.973 400.42 284.513 407.46 286.86C414.647 289.06 421.32 292.433 427.48 296.98C433.64 301.527 438.627 307.687 442.44 315.46C446.4 323.087 448.38 332.693 448.38 344.28C448.38 356.307 445.74 366.353 440.46 374.42C435.18 382.34 428.213 388.72 419.56 393.56C410.907 398.253 401.373 401.627 390.96 403.68C380.547 405.733 370.28 406.76 360.16 406.76C353.707 406.76 347.547 406.467 341.68 405.88C341.533 412.92 341.46 419.887 341.46 426.78C341.46 436.167 341.533 444.893 341.68 452.96C341.827 460.88 342.12 467.847 342.56 473.86L305.38 474.74ZM368.96 317.22C365.147 317.22 361.187 317.367 357.08 317.66C353.12 317.953 349.16 318.32 345.2 318.76C344.467 326.533 343.88 334.967 343.44 344.06C343 353.153 342.633 362.467 342.34 372C347.767 372.44 353.413 372.66 359.28 372.66C394.48 372.66 412.08 362.247 412.08 341.42C412.08 333.207 408.56 327.12 401.52 323.16C394.48 319.2 383.627 317.22 368.96 317.22ZM517.298 478.04C507.912 478.04 500.138 476.353 493.978 472.98C487.965 469.753 483.125 465.28 479.458 459.56C475.938 453.84 473.298 447.46 471.538 440.42C469.925 433.233 468.825 425.827 468.238 418.2C467.798 410.427 467.578 402.947 467.578 395.76C467.578 387.547 467.798 379.187 468.238 370.68C468.825 362.173 469.412 352.86 469.998 342.74L510.258 340.32C509.818 343.4 509.158 348.02 508.278 354.18C507.398 360.34 506.592 367.38 505.858 375.3C505.125 383.22 504.758 391.507 504.758 400.16C504.758 414.387 506.005 424.947 508.498 431.84C510.992 438.587 514.732 441.96 519.718 441.96C529.692 441.96 537.025 434.7 541.718 420.18C546.412 405.66 548.758 382.707 548.758 351.32V341.2L567.458 340.76L590.118 340.32C588.065 354.107 586.525 366.793 585.498 378.38C584.472 389.967 583.812 399.72 583.518 407.64C583.225 415.413 583.078 420.62 583.078 423.26C583.078 430.007 583.665 434.847 584.838 437.78C586.012 440.567 588.065 441.96 590.998 441.96C592.465 441.96 594.078 441.667 595.838 441.08C597.598 440.493 599.652 439.467 601.998 438L600.458 475.84C594.885 476.72 590.045 477.16 585.938 477.16C578.898 477.16 573.105 475.84 568.558 473.2C564.158 470.56 560.638 467.04 557.998 462.64C553.452 467.48 547.805 471.22 541.058 473.86C534.458 476.647 526.538 478.04 517.298 478.04ZM622.118 475.84C622.118 463.813 622.338 450.907 622.778 437.12C623.218 423.333 623.805 409.327 624.538 395.1C625.271 380.873 626.005 366.94 626.738 353.3C627.618 339.66 628.498 326.827 629.378 314.8C630.258 302.627 630.991 291.847 631.578 282.46L668.318 282.9C667.438 291.26 666.558 300.647 665.678 311.06C664.945 321.473 664.211 332.547 663.478 344.28C667.731 342.52 672.278 341.2 677.118 340.32C682.105 339.293 687.458 338.78 693.178 338.78C700.951 338.78 708.358 340.1 715.398 342.74C722.585 345.233 729.038 349.12 734.758 354.4C740.478 359.68 744.951 366.5 748.178 374.86C751.551 383.22 753.238 393.267 753.238 405C753.238 417.467 751.478 428.247 747.958 437.34C744.438 446.433 739.671 453.913 733.658 459.78C727.645 465.647 720.825 469.973 713.198 472.76C705.718 475.693 698.018 477.16 690.098 477.16C684.085 477.16 678.438 476.353 673.158 474.74C668.025 473.127 663.258 471 658.858 468.36C658.858 470.707 658.858 473.053 658.858 475.4L622.118 475.84ZM688.118 375.74C677.118 375.74 668.171 378.967 661.278 385.42C660.691 398.913 660.178 412.113 659.738 425.02C666.925 434.553 676.971 439.32 689.878 439.32C694.131 439.32 698.385 438.367 702.638 436.46C707.038 434.407 710.705 430.96 713.638 426.12C716.571 421.28 718.038 414.533 718.038 405.88C718.038 396.053 715.471 388.573 710.338 383.44C705.351 378.307 697.945 375.74 688.118 375.74Z" fill="black"/>
<mask id="mask0_1346_42" style="mask-type:alpha" maskUnits="userSpaceOnUse" x="364" y="358" width="395" height="407">
<path d="M645.882 584.723L754.007 693.466C760.082 699.575 760.047 709.447 753.945 715.519L709.714 759.495C703.606 765.569 693.736 765.542 687.661 759.433L577.076 648.216L528.071 752.53C524.41 760.324 515.128 763.672 507.336 760.018C505.482 759.147 503.817 757.919 502.437 756.405C501.058 754.89 499.99 753.119 499.295 751.192L365.291 379.731C362.368 371.629 366.565 362.696 374.667 359.773C378.314 358.458 382.322 358.547 385.91 360.025L748.431 509.721C756.389 513.008 760.178 522.123 756.891 530.081C755.372 533.756 752.507 536.712 748.881 538.345L645.882 584.723Z" fill="#161617"/>
</mask>
<g mask="url(#mask0_1346_42)">
<rect x="340.625" y="319.717" width="434.034" height="107.342" fill="#3EB009"/>
<rect x="340.625" y="427.061" width="434.034" height="116.676" fill="#D6C31C"/>
<rect x="340.625" y="543.744" width="434.034" height="116.676" fill="#CD8E14"/>
<rect x="340.625" y="660.414" width="434.034" height="116.676" fill="#B72172"/>
</g>
</svg>
