<svg width="502" height="502" viewBox="0 0 502 502" fill="none" xmlns="http://www.w3.org/2000/svg">
<path d="M78.46 421.38C70.3933 421.38 63.72 419.62 58.44 416.1C53.3067 412.727 49.2 408.033 46.12 402.02C43.1867 396.007 40.9867 389.113 39.52 381.34C38.2 373.567 37.32 365.28 36.88 356.48C36.5867 347.533 36.44 338.587 36.44 329.64C36.44 321.867 36.66 313.36 37.1 304.12C37.54 294.733 38.0533 285.273 38.64 275.74C39.3733 266.06 40.1067 256.967 40.84 248.46C41.72 239.953 42.5267 232.547 43.26 226.24L83.08 226.68C81.9067 234.16 80.8067 242.667 79.78 252.2C78.7533 261.587 77.8733 271.12 77.14 280.8C76.5533 290.48 76.04 299.427 75.6 307.64C75.3067 315.853 75.16 322.38 75.16 327.22C75.16 340.567 75.38 351.053 75.82 358.68C76.4067 366.307 77.2133 371.733 78.24 374.96C79.4133 378.04 80.9533 379.58 82.86 379.58C85.3533 379.58 88.0667 378.04 91 374.96C93.9333 371.733 96.7933 368.14 99.58 364.18L118.28 401.36C113.733 406.347 108.307 410.893 102 415C95.6933 419.253 87.8467 421.38 78.46 421.38ZM136.521 261.88C136.521 260.56 136.448 259.24 136.301 257.92C136.301 256.453 136.301 254.84 136.301 253.08C136.301 248.387 136.448 243.4 136.741 238.12C137.034 232.84 137.328 228.367 137.621 224.7L176.781 225.36C176.341 230.347 175.828 235.993 175.241 242.3C174.801 248.607 174.508 255.133 174.361 261.88H136.521ZM135.641 419.4C135.201 410.307 134.908 400.627 134.761 390.36C134.614 379.947 134.541 369.533 134.541 359.12C134.541 345.48 134.688 332.207 134.981 319.3C135.274 306.393 135.641 294.66 136.081 284.1L173.921 283.88C173.334 290.627 172.968 298.987 172.821 308.96C172.674 318.787 172.601 329.127 172.601 339.98C172.601 350.687 172.674 361.247 172.821 371.66C172.968 382.073 173.114 391.533 173.261 400.04C173.554 408.4 173.774 414.853 173.921 419.4H135.641ZM259.869 422.26C249.896 422.26 240.656 421.087 232.149 418.74C223.642 416.393 215.942 413.387 209.049 409.72C202.156 406.053 195.996 402.167 190.569 398.06L210.369 366.16C216.529 371.88 222.469 376.28 228.189 379.36C233.909 382.44 239.849 384.567 246.009 385.74C252.316 386.913 259.136 387.5 266.469 387.5C272.776 387.5 277.836 386.693 281.649 385.08C285.462 383.32 287.369 381.12 287.369 378.48C287.369 376.28 285.536 374.593 281.869 373.42C278.202 372.1 273.509 371 267.789 370.12C262.069 369.093 256.056 367.847 249.749 366.38C240.802 364.033 232.442 361.32 224.669 358.24C216.896 355.16 210.589 350.98 205.749 345.7C201.056 340.42 198.709 333.38 198.709 324.58C198.709 317.54 200.396 311.38 203.769 306.1C207.142 300.673 211.616 296.2 217.189 292.68C222.909 289.013 229.362 286.3 236.549 284.54C243.736 282.78 251.142 281.9 258.769 281.9C271.969 281.9 283.336 283.513 292.869 286.74C302.549 289.82 311.789 293.927 320.589 299.06L300.569 329.42C296.169 326.34 291.109 323.7 285.389 321.5C279.816 319.153 274.169 317.393 268.449 316.22C262.876 314.9 257.669 314.24 252.829 314.24C247.549 314.24 243.369 315.047 240.289 316.66C237.356 318.273 235.889 320.547 235.889 323.48C235.889 325.24 237.722 326.927 241.389 328.54C245.202 330.007 252.389 331.987 262.949 334.48C269.256 335.947 275.929 337.487 282.969 339.1C290.009 340.567 296.609 342.693 302.769 345.48C309.076 348.12 314.136 352.007 317.949 357.14C321.909 362.127 323.889 368.8 323.889 377.16C323.889 391.24 318.242 402.24 306.949 410.16C295.656 418.227 279.962 422.26 259.869 422.26ZM341.293 419.18C341.293 410.233 341.293 398.793 341.293 384.86C341.44 370.78 341.586 355.16 341.733 338C342.026 320.84 342.393 302.8 342.833 283.88C343.42 264.96 344.08 246.04 344.813 227.12L382.213 226.9C381.626 235.26 381.04 245.453 380.453 257.48C379.866 269.507 379.353 282.413 378.913 296.2C389.033 286.813 400.62 282.12 413.673 282.12C422.62 282.12 430.026 283.733 435.893 286.96C441.906 290.187 446.746 294.44 450.413 299.72C454.08 304.853 456.866 310.5 458.773 316.66C460.68 322.82 462 328.907 462.733 334.92C463.466 340.787 463.833 345.993 463.833 350.54C463.833 360.22 463.76 369.827 463.613 379.36C463.466 388.893 463.32 397.253 463.173 404.44C463.173 411.627 463.173 416.687 463.173 419.62L424.673 419.84C425.26 414.12 425.626 407.52 425.773 400.04C426.066 392.56 426.213 384.86 426.213 376.94C426.36 368.873 426.433 361.247 426.433 354.06C426.433 330.3 420.86 318.42 409.713 318.42C406.34 318.42 402.6 319.3 398.493 321.06C394.386 322.82 390.426 325.607 386.613 329.42C382.946 333.233 380.013 338.293 377.813 344.6C377.666 354.28 377.593 363.667 377.593 372.76C377.593 381.12 377.666 388.967 377.813 396.3C378.106 403.487 378.326 410.747 378.473 418.08L341.293 419.18Z" fill="#636363"/>
<path d="M37.38 201.74C37.2333 197.047 37.16 192.28 37.16 187.44C37.16 182.747 37.16 178.053 37.16 173.36C37.16 151.8 37.6 130.9 38.48 110.66C39.36 90.2733 40.3867 70.84 41.56 52.36C35.6933 53.8267 30.78 55.22 26.82 56.54L18.24 21.34C25.4267 19.14 32.98 17.2333 40.9 15.62C48.9667 13.86 56.8133 12.4667 64.44 11.44C72.2133 10.2667 79.3267 9.45999 85.78 9.02C92.38 8.43333 97.8067 8.13999 102.06 8.13999C106.607 8.13999 112.18 8.50666 118.78 9.23999C125.527 9.97333 132.42 11.5133 139.46 13.86C146.647 16.06 153.32 19.4333 159.48 23.98C165.64 28.5267 170.627 34.6867 174.44 42.46C178.4 50.0867 180.38 59.6933 180.38 71.28C180.38 83.3067 177.74 93.3533 172.46 101.42C167.18 109.34 160.213 115.72 151.56 120.56C142.907 125.253 133.373 128.627 122.96 130.68C112.547 132.733 102.28 133.76 92.16 133.76C85.7067 133.76 79.5467 133.467 73.68 132.88C73.5333 139.92 73.46 146.887 73.46 153.78C73.46 163.167 73.5333 171.893 73.68 179.96C73.8267 187.88 74.12 194.847 74.56 200.86L37.38 201.74ZM100.96 44.22C97.1467 44.22 93.1867 44.3667 89.08 44.66C85.12 44.9533 81.16 45.32 77.2 45.76C76.4667 53.5333 75.88 61.9667 75.44 71.06C75 80.1533 74.6333 89.4667 74.34 99C79.7667 99.44 85.4133 99.66 91.28 99.66C126.48 99.66 144.08 89.2467 144.08 68.42C144.08 60.2067 140.56 54.12 133.52 50.16C126.48 46.2 115.627 44.22 100.96 44.22ZM249.298 205.04C239.912 205.04 232.138 203.353 225.978 199.98C219.965 196.753 215.125 192.28 211.458 186.56C207.938 180.84 205.298 174.46 203.538 167.42C201.925 160.233 200.825 152.827 200.238 145.2C199.798 137.427 199.578 129.947 199.578 122.76C199.578 114.547 199.798 106.187 200.238 97.68C200.825 89.1733 201.412 79.86 201.998 69.74L242.258 67.32C241.818 70.4 241.158 75.02 240.278 81.18C239.398 87.34 238.592 94.38 237.858 102.3C237.125 110.22 236.758 118.507 236.758 127.16C236.758 141.387 238.005 151.947 240.498 158.84C242.992 165.587 246.732 168.96 251.718 168.96C261.692 168.96 269.025 161.7 273.718 147.18C278.412 132.66 280.758 109.707 280.758 78.32V68.2L299.458 67.76L322.118 67.32C320.065 81.1067 318.525 93.7933 317.498 105.38C316.472 116.967 315.812 126.72 315.518 134.64C315.225 142.413 315.078 147.62 315.078 150.26C315.078 157.007 315.665 161.847 316.838 164.78C318.012 167.567 320.065 168.96 322.998 168.96C324.465 168.96 326.078 168.667 327.838 168.08C329.598 167.493 331.652 166.467 333.998 165L332.458 202.84C326.885 203.72 322.045 204.16 317.938 204.16C310.898 204.16 305.105 202.84 300.558 200.2C296.158 197.56 292.638 194.04 289.998 189.64C285.452 194.48 279.805 198.22 273.058 200.86C266.458 203.647 258.538 205.04 249.298 205.04ZM354.118 202.84C354.118 190.813 354.338 177.907 354.778 164.12C355.218 150.333 355.805 136.327 356.538 122.1C357.271 107.873 358.005 93.94 358.738 80.3C359.618 66.66 360.498 53.8267 361.378 41.8C362.258 29.6267 362.991 18.8467 363.578 9.45999L400.318 9.89999C399.438 18.26 398.558 27.6467 397.678 38.06C396.945 48.4733 396.211 59.5467 395.478 71.28C399.731 69.52 404.278 68.2 409.118 67.32C414.105 66.2933 419.458 65.78 425.178 65.78C432.951 65.78 440.358 67.1 447.398 69.74C454.585 72.2333 461.038 76.12 466.758 81.4C472.478 86.68 476.951 93.5 480.178 101.86C483.551 110.22 485.238 120.267 485.238 132C485.238 144.467 483.478 155.247 479.958 164.34C476.438 173.433 471.671 180.913 465.658 186.78C459.645 192.647 452.825 196.973 445.198 199.76C437.718 202.693 430.018 204.16 422.098 204.16C416.085 204.16 410.438 203.353 405.158 201.74C400.025 200.127 395.258 198 390.858 195.36C390.858 197.707 390.858 200.053 390.858 202.4L354.118 202.84ZM420.118 102.74C409.118 102.74 400.171 105.967 393.278 112.42C392.691 125.913 392.178 139.113 391.738 152.02C398.925 161.553 408.971 166.32 421.878 166.32C426.131 166.32 430.385 165.367 434.638 163.46C439.038 161.407 442.705 157.96 445.638 153.12C448.571 148.28 450.038 141.533 450.038 132.88C450.038 123.053 447.471 115.573 442.338 110.44C437.351 105.307 429.945 102.74 420.118 102.74Z" fill="black"/>
<mask id="mask0_1357_52" style="mask-type:alpha" maskUnits="userSpaceOnUse" x="96" y="85" width="395" height="407">
<path d="M377.882 311.723L486.007 420.466C492.082 426.575 492.047 436.447 485.945 442.519L441.714 486.495C435.606 492.569 425.736 492.542 419.661 486.433L309.076 375.216L260.071 479.53C256.41 487.324 247.128 490.672 239.336 487.018C237.482 486.147 235.817 484.919 234.437 483.405C233.058 481.89 231.99 480.119 231.295 478.192L97.291 106.731C94.3682 98.6291 98.5647 89.6963 106.667 86.7734C110.314 85.4578 114.322 85.5473 117.91 87.0249L480.431 236.721C488.389 240.008 492.178 249.123 488.891 257.081C487.372 260.756 484.507 263.712 480.881 265.345L377.882 311.723Z" fill="#161617"/>
</mask>
<g mask="url(#mask0_1357_52)">
<rect x="72.625" y="46.7168" width="434.034" height="107.342" fill="#3EB009"/>
<rect x="72.625" y="154.061" width="434.034" height="116.676" fill="#D6C31C"/>
<rect x="72.625" y="270.744" width="434.034" height="116.676" fill="#CD8E14"/>
<rect x="72.625" y="387.414" width="434.034" height="116.676" fill="#B72172"/>
</g>
</svg>
