<svg width="900" height="900" viewBox="0 0 900 900" fill="none" xmlns="http://www.w3.org/2000/svg">
<path d="M0 0H900V900H0V0Z" fill="#1A284B"/>
<path d="M474.502 797.457L268.925 591.88L221.484 595.043L344.83 471.697L398.597 462.208L537.756 323.049H743.333V528.626L604.173 667.785L594.685 721.552L471.339 844.898L474.502 797.457ZM474.502 753.179L711.706 515.975V354.676H550.407L313.203 591.88L474.502 753.179ZM585.197 417.93C619.987 417.93 648.451 446.395 648.451 481.185C648.451 515.975 619.987 544.439 585.197 544.439C550.407 544.439 521.943 515.975 521.943 481.185C521.943 446.395 550.407 417.93 585.197 417.93ZM585.197 449.558C566.221 449.558 553.57 462.208 553.57 481.185C553.57 500.161 566.221 512.812 585.197 512.812C604.173 512.812 616.824 500.161 616.824 481.185C616.824 462.208 604.173 449.558 585.197 449.558ZM370.132 715.226L310.041 775.318L284.739 753.179L344.83 693.087L370.132 715.226Z" fill="white"/>
<line x1="395.398" y1="146.48" x2="123.13" y2="353.923" stroke="#F8F8F8" stroke-width="7"/>
<line x1="543.066" y1="87.044" x2="361.893" y2="237.203" stroke="white" stroke-width="10"/>
<line x1="504.167" y1="176.719" x2="322.995" y2="326.878" stroke="white" stroke-width="10"/>
<path d="M343.773 685.601L373.788 715.424L310.624 778.993L280.61 749.17L343.773 685.601Z" fill="#DB4809"/>
</svg>
